# xmcd
#
# Track frame offsets:
#	150
#	23644
#	42450
#	58255
#	79269
#	94884
#	110687
#	125104
#	148556
#	165850
#	187247
#	209501
#	224197
#	241178
#
# Disc length: 3504 seconds
#
# Revision: 0
# Processed by: cddbd v1.5.2PL0 Copyright (c) Steve Scherf et al.
# Submitted via: EZCDAudioConverter 4.0.4.2
#
DISCID=d90dae0e
DTITLE=After Midnight - The Music of Eric Clapton
DYEAR=1900
DGENRE=Blues
TTITLE0=Layla
TTITLE1=Wonderful Tonight
TTITLE2=I Shot The Sheriff
TTITLE3=Knocking' on Heaven's Door
TTITLE4=Before You Accuse M
TTITLE5=Layla (Unplugged)
TTITLE6=Nobody Knows You When You're Down and Out
TTITLE7=Tears in Heaven
TTITLE8=Cocaine
TTITLE9=Bell Bottom Blues
TTITLE10=Key to the Highway
TTITLE11=All Your Love
TTITLE12=Lay Down Sally
TTITLE13=Sunshine of Your Love
EXTD=
EXTT0=
EXTT1=
EXTT2=
EXTT3=
EXTT4=
EXTT5=
EXTT6=
EXTT7=
EXTT8=
EXTT9=
EXTT10=
EXTT11=
EXTT12=
EXTT13=
PLAYORDER=
